<?xml version="1.0" encoding="iso-8859-1"?>
<!-- Generator: Adobe Illustrator 16.0.0, SVG Export Plug-In . SVG Version: 6.00 Build 0)  -->
<!DOCTYPE svg PUBLIC "-//W3C//DTD SVG 1.1//EN" "http://www.w3.org/Graphics/SVG/1.1/DTD/svg11.dtd">
<svg version="1.1" fill="#0707e0" id="Capa_1" xmlns="http://www.w3.org/2000/svg" xmlns:xlink="http://www.w3.org/1999/xlink" x="0px" y="0px"
	 width="460.773px" height="460.772px" viewBox="0 0 460.773 460.772" style="enable-background:new 0 0 460.773 460.772;"
	 xml:space="preserve">
<g>
	<g>
		<path d="M178.738,70.51c-2.968,0-5.375,2.404-5.375,5.375v135.912c0,2.972,2.407,5.375,5.375,5.375
			c2.966,0,5.375-2.403,5.375-5.375V75.885C184.113,72.919,181.704,70.51,178.738,70.51z"/>
		<path d="M456.153,312.713L377.307,63.36l-0.01-0.005c-7.55-34.875-41.912-57.269-76.926-50.038
			c-27.391,5.686-48.063,28.15-51.461,55.898c-0.182,1.478,0.258,2.888,1.114,3.971c-0.981,0.975-1.576,2.317-1.576,3.807v19.202
			h-36.126V75.89c0-1.487-0.603-2.832-1.579-3.805c0.853-1.084,1.288-2.494,1.113-3.972c-3.394-27.749-24.077-50.21-51.471-55.898
			c-35-7.242-69.376,15.163-76.917,50.039c0,0,0,0.005-0.005,0.005L4.617,311.61c-0.016,0.072,0,0.132-0.016,0.199
			C1.628,321.574,0,331.926,0,342.646C0,401.196,47.626,448.81,106.165,448.81c58.536,0,106.164-47.613,106.164-106.164v-95.413
			h36.118v96.52c0,58.553,47.627,106.165,106.162,106.165c58.542,0,106.165-47.612,106.165-106.165
			c0-10.724-1.628-21.071-4.6-30.835C456.153,312.844,456.173,312.775,456.153,312.713z M106.17,236.48
			c-30.344,0-57.688,12.876-77.051,33.35L93.732,65.502c0.031-0.097,0.005-0.189,0.031-0.287c0.021-0.091,0.086-0.155,0.107-0.247
			c6.099-29.383,34.972-48.342,64.35-42.229c22.872,4.746,40.148,23.502,42.98,46.676c0.157,1.267,0.769,2.354,1.625,3.176
			c-0.732,0.918-1.231,2.031-1.231,3.293v23.578c-0.275,0.646-0.43,1.354-0.43,2.103c0,0.745,0.155,1.457,0.43,2.1v192.732
			C184.349,260.996,148.113,236.48,106.17,236.48z M212.333,236.48V106.941h36.122V236.48H212.333L212.333,236.48z M259.19,76.988
			c0-1.268-0.504-2.381-1.234-3.294c0.852-0.83,1.46-1.903,1.629-3.179c2.823-23.171,20.104-41.927,42.981-46.673
			c29.365-6.118,58.248,12.846,64.347,42.229c0.021,0.091,0.085,0.16,0.116,0.247c0.021,0.097,0,0.188,0.031,0.281l64.609,204.327
			c-19.369-20.482-46.698-33.35-77.051-33.35c-41.942,0-78.179,24.515-95.413,59.918V76.994h-0.016V76.988z"/>
		<path d="M384.519,210.643c0.642,2.402,2.81,3.993,5.197,3.993c0.457,0,0.919-0.059,1.381-0.177
			c2.872-0.763,4.583-3.703,3.817-6.579L359.805,75.607c-0.762-2.866-3.696-4.564-6.571-3.816c-2.866,0.764-4.578,3.703-3.817,6.578
			L384.519,210.643z"/>
	</g>
</g>
<g>
</g>
<g>
</g>
<g>
</g>
<g>
</g>
<g>
</g>
<g>
</g>
<g>
</g>
<g>
</g>
<g>
</g>
<g>
</g>
<g>
</g>
<g>
</g>
<g>
</g>
<g>
</g>
<g>
</g>
</svg>
